<svg width="256px" height="256px" viewBox="0 0 24 24" fill="none" xmlns="http://www.w3.org/2000/svg"><path d="M4 14.8421C4 14.8421 4.28301 12.5263 6.26415 12.5263C8.24529 12.5263 8.45283 14.8421 8.45283 14.8421M15.5472 14.8421C15.5472 14.8421 15.717 12.5263 17.7358 12.5263C19.7547 12.5263 20 14.8421 20 14.8421M9 4H15M12 4V7M6 20H18C19.1046 20 20 19.1046 20 18V9C20 7.89543 19.1046 7 18 7H6C4.89543 7 4 7.89543 4 9V18C4 19.1046 4.89543 20 6 20Z" stroke="#000000" stroke-width="2" stroke-linecap="round" stroke-linejoin="round"/></svg>